<svg width="142" height="28" viewBox="0 0 142 28" fill="none" xmlns="http://www.w3.org/2000/svg">
<path d="M29 25.2V3.3H35.21C37.21 3.3 38.77 3.8 39.89 4.8C41.03 5.8 41.6 7.19 41.6 8.97C41.6 9.97 41.39 10.84 40.97 11.58C40.55 12.32 39.95 12.89 39.17 13.29C38.41 13.69 37.49 13.88 36.41 13.86V13.41C37.57 13.39 38.57 13.61 39.41 14.07C40.27 14.53 40.93 15.19 41.39 16.05C41.87 16.91 42.11 17.93 42.11 19.11C42.11 20.35 41.85 21.43 41.33 22.35C40.81 23.27 40.07 23.98 39.11 24.48C38.15 24.96 37 25.2 35.66 25.2H29ZM31.64 22.77H35.36C36.62 22.77 37.61 22.44 38.33 21.78C39.07 21.1 39.44 20.18 39.44 19.02C39.44 17.82 39.07 16.85 38.33 16.11C37.61 15.35 36.62 14.97 35.36 14.97H31.64V22.77ZM31.64 12.63H35.18C36.34 12.63 37.25 12.32 37.91 11.7C38.59 11.08 38.93 10.24 38.93 9.18C38.93 8.12 38.6 7.28 37.94 6.66C37.28 6.04 36.37 5.73 35.21 5.73H31.64V12.63Z" fill="#505050"/>
<path d="M46.9583 25.2V3.3H53.7383C55.0383 3.3 56.1783 3.57 57.1583 4.11C58.1383 4.63 58.8983 5.36 59.4383 6.3C59.9783 7.24 60.2483 8.34 60.2483 9.6C60.2483 11.08 59.8583 12.35 59.0783 13.41C58.3183 14.47 57.2783 15.2 55.9583 15.6L60.5483 25.2H57.3683L53.1683 15.9H49.6583V25.2H46.9583ZM49.6583 13.47H53.7383C54.8583 13.47 55.7583 13.12 56.4383 12.42C57.1183 11.7 57.4583 10.76 57.4583 9.6C57.4583 8.42 57.1183 7.48 56.4383 6.78C55.7583 6.08 54.8583 5.73 53.7383 5.73H49.6583V13.47Z" fill="#505050"/>
<path d="M65.8066 25.2V3.3H68.5666V25.2H65.8066Z" fill="#505050"/>
<path d="M81.2948 25.5C79.9748 25.5 78.8248 25.25 77.8448 24.75C76.8848 24.25 76.1348 23.53 75.5948 22.59C75.0748 21.63 74.8148 20.5 74.8148 19.2V9.3C74.8148 7.98 75.0748 6.85 75.5948 5.91C76.1348 4.97 76.8848 4.25 77.8448 3.75C78.8248 3.25 79.9748 3 81.2948 3C82.6148 3 83.7548 3.26 84.7148 3.78C85.6748 4.28 86.4148 5 86.9348 5.94C87.4548 6.88 87.7148 8 87.7148 9.3H85.0148C85.0148 8.06 84.6848 7.11 84.0248 6.45C83.3848 5.77 82.4748 5.43 81.2948 5.43C80.1148 5.43 79.1848 5.76 78.5048 6.42C77.8448 7.08 77.5148 8.03 77.5148 9.27V19.2C77.5148 20.44 77.8448 21.4 78.5048 22.08C79.1848 22.76 80.1148 23.1 81.2948 23.1C82.4748 23.1 83.3848 22.76 84.0248 22.08C84.6848 21.4 85.0148 20.44 85.0148 19.2V16.5H80.5748V14.04H87.7148V19.2C87.7148 20.48 87.4548 21.6 86.9348 22.56C86.4148 23.5 85.6748 24.23 84.7148 24.75C83.7548 25.25 82.6148 25.5 81.2948 25.5Z" fill="#505050"/>
<path d="M91.6631 25.2L97.3631 3.3H100.993L106.663 25.2H103.933L102.493 19.38H95.8631L94.4231 25.2H91.6631ZM96.4031 17.1H101.923L100.243 10.35C99.9231 9.07 99.6731 8 99.4931 7.14C99.3131 6.28 99.2031 5.72 99.1631 5.46C99.1231 5.72 99.0131 6.28 98.8331 7.14C98.6531 8 98.4031 9.06 98.0831 10.32L96.4031 17.1Z" fill="#505050"/>
<path d="M110.911 25.2V3.3H116.581C118.001 3.3 119.221 3.57 120.241 4.11C121.281 4.65 122.081 5.41 122.641 6.39C123.221 7.37 123.511 8.53 123.511 9.87V18.6C123.511 19.94 123.221 21.11 122.641 22.11C122.081 23.09 121.281 23.85 120.241 24.39C119.221 24.93 118.001 25.2 116.581 25.2H110.911ZM113.611 22.8H116.581C117.901 22.8 118.931 22.43 119.671 21.69C120.431 20.95 120.811 19.92 120.811 18.6V9.87C120.811 8.57 120.431 7.55 119.671 6.81C118.931 6.07 117.901 5.7 116.581 5.7H113.611V22.8Z" fill="#505050"/>
<path d="M129.14 25.2V3.3H141.74V5.76H131.81V12.54H140.69V14.97H131.81V22.74H141.74V25.2H129.14Z" fill="#505050"/>
<path fill-rule="evenodd" clip-rule="evenodd" d="M0.421075 7.15806L0 4C0 1.79086 1.79086 -7.15256e-07 4 -7.15256e-07H11.7707C15.7633 -7.15256e-07 19 3.23666 19 7.22928C19 10.2868 17.0866 12.9606 14.3065 14C13.0437 13.6544 14.3065 14 13.0437 13.6544L5.31192 12.2713C2.74317 11.8118 0.76596 9.7447 0.421075 7.15806Z" fill="#419EFF"/>
<path fill-rule="evenodd" clip-rule="evenodd" d="M0.421075 20.8419L0 24C0 26.2091 1.79086 28 4 28H11.7707C15.7633 28 19 24.7633 19 20.7707C19 17.7132 17.0866 15.0394 14.3065 14C13.0437 14.3456 14.3065 14 13.0437 14.3456L5.31192 15.7287C2.74317 16.1882 0.76596 18.2553 0.421075 20.8419Z" fill="#2FFFD9"/>
<path fill-rule="evenodd" clip-rule="evenodd" d="M0 4V24L0.421075 20.8419C0.765959 18.2553 2.74317 16.1882 5.31192 15.7287L13.0437 14.3456C14.3065 14 13.0437 14.3456 14.3065 14C13.0437 13.6544 14.3065 14 13.0437 13.6544L5.31192 12.2713C2.74317 11.8118 0.765959 9.7447 0.421075 7.15806L0 4Z" fill="#2298EE"/>
<path d="M0 4C0 1.79086 1.79086 0 4 0H15C17.2091 0 19 1.79086 19 4V24C19 26.2091 17.2091 28 15 28H4C1.79086 28 0 26.2091 0 24V4Z" fill="url(#paint0_linear_15_74)"/>
<defs>
<linearGradient id="paint0_linear_15_74" x1="18.5" y1="0" x2="0.5" y2="0" gradientUnits="userSpaceOnUse">
<stop stop-color="white" stop-opacity="0"/>
<stop offset="1" stop-color="#0075FF" stop-opacity="0.46"/>
</linearGradient>
</defs>
</svg>
