<svg width="113" height="28" viewBox="0 0 113 28" fill="none" xmlns="http://www.w3.org/2000/svg">
<path d="M26 22.7733V6.22667H30.7922C32.3356 6.22667 33.5394 6.60444 34.4037 7.36C35.2834 8.11556 35.7233 9.16578 35.7233 10.5107C35.7233 11.2662 35.5612 11.9236 35.2371 12.4827C34.913 13.0418 34.45 13.4724 33.8481 13.7747C33.2616 14.0769 32.5516 14.2204 31.7182 14.2053V13.8653C32.6134 13.8502 33.3851 14.0164 34.0333 14.364C34.6969 14.7116 35.2063 15.2102 35.5612 15.86C35.9316 16.5098 36.1168 17.2804 36.1168 18.172C36.1168 19.1089 35.9162 19.9249 35.5149 20.62C35.1136 21.3151 34.5426 21.8516 33.8018 22.2293C33.061 22.592 32.1735 22.7733 31.1395 22.7733H26ZM28.0373 20.9373H30.9079C31.8803 20.9373 32.6442 20.688 33.1999 20.1893C33.7709 19.6756 34.0564 18.9804 34.0564 18.104C34.0564 17.1973 33.7709 16.4644 33.1999 15.9053C32.6442 15.3311 31.8803 15.044 30.9079 15.044H28.0373V20.9373ZM28.0373 13.276H30.769C31.6642 13.276 32.3664 13.0418 32.8758 12.5733C33.4005 12.1049 33.6629 11.4702 33.6629 10.6693C33.6629 9.86844 33.4082 9.23378 32.8989 8.76533C32.3896 8.29689 31.6873 8.06267 30.7922 8.06267H28.0373V13.276Z" fill="#808080"/>
<path d="M39.8582 22.7733V6.22667H45.0903C46.0935 6.22667 46.9732 6.43067 47.7294 6.83867C48.4857 7.23156 49.0722 7.78311 49.4889 8.49333C49.9056 9.20356 50.114 10.0347 50.114 10.9867C50.114 12.1049 49.813 13.0644 49.2111 13.8653C48.6246 14.6662 47.822 15.2178 46.8034 15.52L50.3455 22.7733H47.8915L44.6504 15.7467H41.9418V22.7733H39.8582ZM41.9418 13.9107H45.0903C45.9546 13.9107 46.6491 13.6462 47.1738 13.1173C47.6986 12.5733 47.961 11.8631 47.961 10.9867C47.961 10.0951 47.6986 9.38489 47.1738 8.856C46.6491 8.32711 45.9546 8.06267 45.0903 8.06267H41.9418V13.9107Z" fill="#808080"/>
<path d="M54.4032 22.7733V6.22667H56.5331V22.7733H54.4032Z" fill="#808080"/>
<path d="M66.3554 23C65.3367 23 64.4493 22.8111 63.693 22.4333C62.9522 22.0556 62.3735 21.5116 61.9567 20.8013C61.5555 20.076 61.3548 19.2222 61.3548 18.24V10.76C61.3548 9.76267 61.5555 8.90889 61.9567 8.19867C62.3735 7.48844 62.9522 6.94444 63.693 6.56667C64.4493 6.18889 65.3367 6 66.3554 6C67.374 6 68.2537 6.19644 68.9945 6.58933C69.7354 6.96711 70.3064 7.51111 70.7077 8.22133C71.109 8.93156 71.3096 9.77778 71.3096 10.76H69.2261C69.2261 9.82311 68.9714 9.10533 68.4621 8.60667C67.9682 8.09289 67.266 7.836 66.3554 7.836C65.4448 7.836 64.7271 8.08533 64.2024 8.584C63.693 9.08267 63.4384 9.80044 63.4384 10.7373V18.24C63.4384 19.1769 63.693 19.9022 64.2024 20.416C64.7271 20.9298 65.4448 21.1867 66.3554 21.1867C67.266 21.1867 67.9682 20.9298 68.4621 20.416C68.9714 19.9022 69.2261 19.1769 69.2261 18.24V16.2H65.7998V14.3413H71.3096V18.24C71.3096 19.2071 71.109 20.0533 70.7077 20.7787C70.3064 21.4889 69.7354 22.0404 68.9945 22.4333C68.2537 22.8111 67.374 23 66.3554 23Z" fill="#808080"/>
<path d="M74.3565 22.7733L78.7551 6.22667H81.5563L85.9318 22.7733H83.8251L82.7139 18.376H77.5976L76.4863 22.7733H74.3565ZM78.0143 16.6533H82.274L80.9776 11.5533C80.7306 10.5862 80.5377 9.77778 80.3988 9.128C80.2599 8.47822 80.175 8.05511 80.1441 7.85867C80.1133 8.05511 80.0284 8.47822 79.8895 9.128C79.7506 9.77778 79.5576 10.5787 79.3107 11.5307L78.0143 16.6533Z" fill="#808080"/>
<path d="M89.2102 22.7733V6.22667H93.5856C94.6814 6.22667 95.6229 6.43067 96.41 6.83867C97.2126 7.24667 97.8299 7.82089 98.2621 8.56133C98.7096 9.30178 98.9334 10.1782 98.9334 11.1907V17.7867C98.9334 18.7991 98.7096 19.6831 98.2621 20.4387C97.8299 21.1791 97.2126 21.7533 96.41 22.1613C95.6229 22.5693 94.6814 22.7733 93.5856 22.7733H89.2102ZM91.2937 20.96H93.5856C94.6043 20.96 95.3991 20.6804 95.9701 20.1213C96.5566 19.5622 96.8499 18.784 96.8499 17.7867V11.1907C96.8499 10.2084 96.5566 9.43778 95.9701 8.87867C95.3991 8.31955 94.6043 8.04 93.5856 8.04H91.2937V20.96Z" fill="#808080"/>
<path d="M103.277 22.7733V6.22667H113V8.08533H105.337V13.208H112.19V15.044H105.337V20.9147H113V22.7733H103.277Z" fill="#808080"/>
<path fill-rule="evenodd" clip-rule="evenodd" d="M0.421075 7.15806L0 4C0 1.79086 1.79086 -7.15256e-07 4 -7.15256e-07H11.7707C15.7633 -7.15256e-07 19 3.23666 19 7.22928C19 10.2868 17.0866 12.9606 14.3065 14C12 13 8.23866 12.7949 5.31192 12.2713C2.74317 11.8118 0.76596 9.7447 0.421075 7.15806Z" fill="#419EFF"/>
<path fill-rule="evenodd" clip-rule="evenodd" d="M0.421075 20.8419L0 24C0 26.2091 1.79086 28 4 28H11.7707C15.7633 28 19 24.7633 19 20.7707C19 17.7132 17.0866 15.0394 14.3065 14C12 15 8.23866 15.2051 5.31192 15.7287C2.74317 16.1882 0.76596 18.2553 0.421075 20.8419Z" fill="#12FCD2"/>
<path fill-rule="evenodd" clip-rule="evenodd" d="M0 4V24L0.421075 20.8419C0.765959 18.2553 2.74317 16.1882 5.31192 15.7287C8.23865 15.2051 12 15 14.3065 14C12 13 8.23865 12.7949 5.31192 12.2713C2.74317 11.8118 0.765959 9.7447 0.421075 7.15806L0 4Z" fill="#2298EE"/>
<path fill-rule="evenodd" clip-rule="evenodd" d="M19 20.7707C19 17.7132 17.0866 15.0394 14.3065 14C17.0866 12.9606 19 10.2868 19 7.22928C19 3.23666 15.7633 0 11.7707 0H4C1.79086 0 0 1.79086 0 4V24C0 26.2091 1.79086 28 4 28H11.7707C15.7633 28 19 24.7633 19 20.7707Z" fill="url(#paint0_linear_17_85)"/>
<defs>
<linearGradient id="paint0_linear_17_85" x1="19" y1="0" x2="0" y2="0" gradientUnits="userSpaceOnUse">
<stop stop-color="white" stop-opacity="0"/>
<stop offset="1" stop-color="#0075FF" stop-opacity="0.46"/>
</linearGradient>
</defs>
</svg>
